<svg width="16" height="16" viewBox="0 0 16 16" fill="none" xmlns="http://www.w3.org/2000/svg">
<path fill-rule="evenodd" clip-rule="evenodd" d="M12.1932 5.96975C12.263 5.90002 12.3458 5.84471 12.4369 5.80697C12.528 5.76923 12.6256 5.74981 12.7242 5.74981C12.8229 5.74981 12.9205 5.76923 13.0116 5.80697C13.1027 5.84471 13.1855 5.90002 13.2552 5.96975C13.325 6.03949 13.3803 6.12227 13.418 6.21338C13.4558 6.30449 13.4752 6.40214 13.4752 6.50075C13.4752 6.59937 13.4558 6.69702 13.418 6.78813C13.3803 6.87924 13.325 6.96202 13.2552 7.03175L8.53024 11.7568C8.38959 11.8974 8.19886 11.9763 7.99999 11.9763C7.80112 11.9763 7.61039 11.8974 7.46974 11.7568L2.74474 7.03175C2.60391 6.89083 2.52483 6.69972 2.5249 6.50049C2.52497 6.30126 2.60419 6.11021 2.74511 5.96938C2.88604 5.82855 3.07715 5.74947 3.27638 5.74954C3.47561 5.74961 3.66666 5.82883 3.80749 5.96975L7.99999 10.163L12.1932 5.96975Z" fill="#4F566B"/>
</svg>
