<svg width="16" height="16" viewBox="0 0 16 16" fill="none" xmlns="http://www.w3.org/2000/svg">
<path d="M10.9183 9.49398C11.059 9.35315 11.2499 9.27399 11.449 9.27392C11.6481 9.27385 11.8391 9.35287 11.9799 9.4936C12.1208 9.63433 12.1999 9.82524 12.2 10.0243C12.2001 10.2234 12.121 10.4144 11.9803 10.5552L8.7553 13.7802C8.61466 13.9208 8.42393 13.9998 8.22505 13.9998C8.02618 13.9998 7.83545 13.9208 7.6948 13.7802L4.4698 10.5552C4.32907 10.4143 4.25009 10.2232 4.25023 10.0241C4.25037 9.82491 4.32962 9.63396 4.47055 9.49323C4.61148 9.3525 4.80255 9.27351 5.00171 9.27365C5.20087 9.2738 5.39182 9.35305 5.53255 9.49398L8.22505 12.1872L10.9183 9.49398ZM10.9183 6.50598L8.22505 3.81273L5.5318 6.50598C5.39107 6.64681 5.20016 6.72596 5.00107 6.72603C4.80198 6.7261 4.61101 6.64708 4.47018 6.50635C4.32935 6.36562 4.25019 6.17471 4.25012 5.97562C4.25005 5.77652 4.32907 5.58556 4.4698 5.44473L7.6948 2.21973C7.83545 2.07912 8.02618 2.00014 8.22505 2.00014C8.42393 2.00014 8.61466 2.07912 8.7553 2.21973L11.9803 5.44473C12.05 5.51446 12.1053 5.59723 12.1429 5.68832C12.1806 5.77941 12.2 5.87704 12.2 5.97562C12.2 6.0742 12.1805 6.17181 12.1427 6.26287C12.105 6.35393 12.0497 6.43667 11.9799 6.50635C11.9102 6.57604 11.8274 6.6313 11.7363 6.66899C11.6452 6.70669 11.5476 6.72607 11.449 6.72603C11.3505 6.726 11.2528 6.70655 11.1618 6.66879C11.0707 6.63103 10.988 6.57571 10.9183 6.50598Z" fill="#4F566B"/>
</svg>
